# xmcd
#
# Track frame offsets:
#	150
#	11397
#	22665
#	34834
#	47012
#	59221
#	71433
#	83562
#	95701
#	106841
#	118043
#	131430
#	144814
#	155113
#	165413
#	178783
#	192159
#	203788
#	215318
#	227644
#	239956
#	244653
#	249360
#	254077
#	258906
#	263691
#	268378
#	273063
#	277809
#	282602
#	287316
#	289755
#	292216
#	294681
#	297164
#	299679
#	302120
#	304522
#	307088
#	309620
#	312079
#	313435
#	314822
#	316213
#	317665
#	319087
#	320408
#	321714
#	323100
#	324554
#
# Disc length: 4343 seconds
#
# Revision: 0
# Processed by: cddbd v1.5.2PL0 Copyright (c) Steve Scherf et al.
# Submitted via: audiograbber 1.83.01
#
DISCID=1010f532
DTITLE=Westar Music Library - WSR 273 - New Country - Rockin' and Edgy
DYEAR=2009
DGENRE=Country
TTITLE0=Loadin' Up
TTITLE1=Loadin' Up Alt
TTITLE2=Fiddlin' Around
TTITLE3=Fiddlin' Around Alt
TTITLE4=Bad Mamma Jamma
TTITLE5=Bad Mamma Jamma Alt
TTITLE6=Thunder on the Horizon
TTITLE7=Thunder on the Horizon Alt
TTITLE8=Commanders and Volunteers
TTITLE9=Commanders and Volunteers Alt
TTITLE10=My Way or the Highway
TTITLE11=My Way or the Highway Alt
TTITLE12=Snakes in the Grass
TTITLE13=Snakes in the Grass Alt
TTITLE14=Seeing It Through
TTITLE15=Seeing It Through Alt
TTITLE16=Workman's Attitude
TTITLE17=Workman's Attitude Alt
TTITLE18=Conspire to Inspire
TTITLE19=Conspire to Inspire Alt
TTITLE20=Loadin' Up :60
TTITLE21=Fiddlin' Around :60
TTITLE22=Bad Mamma Jamma :60
TTITLE23=Thunder on the Horizon :60
TTITLE24=Commanders and Volunteers :60
TTITLE25=My Way or the Highway :60
TTITLE26=Snakes in the Grass :60
TTITLE27=Seeing It Through :60
TTITLE28=Workman's Attitude :60
TTITLE29=Conspire to Inspire :60
TTITLE30=Loadin' Up :30
TTITLE31=Fiddlin' Around :30
TTITLE32=Bad Mamma Jamma :30
TTITLE33=Thunder on the Horizon :30
TTITLE34=Commanders and Volunteers :30
TTITLE35=My Way or the Highway :30
TTITLE36=Snakes in the Grass :30
TTITLE37=Seeing It Through :30
TTITLE38=Workman's Attitude :30
TTITLE39=Conspire to Inspire :30
TTITLE40=Loadin' Up :15
TTITLE41=Fiddlin' Around :15
TTITLE42=Bad Mamma Jamma :15
TTITLE43=Thunder on the Horizon :15
TTITLE44=Commanders and Volunteers :15
TTITLE45=My Way or the Highway :15
TTITLE46=Snakes in the Grass :15
TTITLE47=Seeing It Through :15
TTITLE48=Workman's Attitude :15
TTITLE49=Conspire to Inspire :15
EXTD=
EXTT0=
EXTT1=
EXTT2=
EXTT3=
EXTT4=
EXTT5=
EXTT6=
EXTT7=
EXTT8=
EXTT9=
EXTT10=
EXTT11=
EXTT12=
EXTT13=
EXTT14=
EXTT15=
EXTT16=
EXTT17=
EXTT18=
EXTT19=
EXTT20=
EXTT21=
EXTT22=
EXTT23=
EXTT24=
EXTT25=
EXTT26=
EXTT27=
EXTT28=
EXTT29=
EXTT30=
EXTT31=
EXTT32=
EXTT33=
EXTT34=
EXTT35=
EXTT36=
EXTT37=
EXTT38=
EXTT39=
EXTT40=
EXTT41=
EXTT42=
EXTT43=
EXTT44=
EXTT45=
EXTT46=
EXTT47=
EXTT48=
EXTT49=
PLAYORDER=
